<?xml version="1.0" encoding="utf-8"?>
<!-- Generator: Adobe Illustrator 19.1.0, SVG Export Plug-In . SVG Version: 6.00 Build 0)  -->
<svg version="1.1" id="Layer_1" xmlns="http://www.w3.org/2000/svg" xmlns:xlink="http://www.w3.org/1999/xlink" x="0px" y="0px"
	 viewBox="0 0 300 300" style="enable-background:new 0 0 300 300;" xml:space="preserve">
<style type="text/css">
	.st0{fill-rule:evenodd;clip-rule:evenodd;fill:#FFFFFF;}
	.st1{fill:#FFFFFF;}
</style>
<g>
	<path class="st1" d="M71.3,168.2l-5.7,17.4h-7.4L77,130.3h8.6l18.9,55.3h-7.6l-5.9-17.4H71.3z M89.4,162.6L84,146.7
		c-1.2-3.6-2-6.9-2.9-10.1H81c-0.8,3.3-1.7,6.6-2.8,10l-5.4,16H89.4z M89.5,120.9c0,4.1-3.4,7.3-8.1,7.3c-5,0-8.2-3.3-8.2-7.2
		c0-4.1,3.1-7.5,8.2-7.5C86.4,113.6,89.5,116.8,89.5,120.9z M77.4,121c0,2,1.6,4.2,3.9,4.2c2.4,0,3.9-2,3.9-4.3s-1.6-4.3-3.9-4.3
		C78.8,116.5,77.4,118.6,77.4,121z"/>
	<path class="st1" d="M141,168.2l-5.7,17.4h-7.4l18.8-55.3h8.6l18.9,55.3h-7.6l-5.9-17.4H141z M139.6,122.4c0-2.3,1.7-4.1,4.1-4.1
		c2.2,0,3.9,1.8,3.9,4.1s-1.6,4.2-3.9,4.2C141.3,126.6,139.6,124.7,139.6,122.4z M159.2,162.6l-5.4-15.9c-1.2-3.6-2.1-6.9-2.9-10.1
		h-0.2c-0.8,3.3-1.7,6.6-2.8,10l-5.4,16H159.2z M154.9,122.4c0-2.3,1.7-4.1,4-4.1c2.3,0,3.9,1.8,3.9,4.1s-1.6,4.2-4,4.2
		C156.4,126.6,154.9,124.7,154.9,122.4z"/>
	<path class="st1" d="M241.8,157.3c0,19-11.6,29.1-25.7,29.1c-14.6,0-24.8-11.3-24.8-28c0-17.5,10.9-29,25.7-29
		C232,129.4,241.8,140.9,241.8,157.3z M198.9,158.2c0,11.8,6.4,22.4,17.6,22.4c11.3,0,17.7-10.4,17.7-23c0-11-5.7-22.5-17.6-22.5
		C204.8,135.2,198.9,146.1,198.9,158.2z M205,122.2c0-2.2,1.7-4.1,4-4.1c2.3,0,3.9,1.8,3.9,4.1s-1.6,4.2-3.9,4.2
		C206.5,126.4,205,124.5,205,122.2z M220.1,122.2c0-2.2,1.7-4.1,4.1-4.1c2.3,0,3.9,1.8,3.9,4.1s-1.6,4.2-4,4.2
		C221.8,126.4,220.1,124.5,220.1,122.2z"/>
</g>
</svg>
