<?xml version="1.0" encoding="utf-8"?>
<!-- Generator: Adobe Illustrator 19.1.0, SVG Export Plug-In . SVG Version: 6.00 Build 0)  -->
<svg version="1.1" id="Layer_1" xmlns="http://www.w3.org/2000/svg" xmlns:xlink="http://www.w3.org/1999/xlink" x="0px" y="0px"
	 viewBox="0 0 300 300" style="enable-background:new 0 0 300 300;" xml:space="preserve">
<style type="text/css">
	.st0{fill-rule:evenodd;clip-rule:evenodd;fill:#FFFFFF;}
	.st1{fill:#FFFFFF;}
</style>
<g id="Shape_6">
	<g>
		<path class="st0" d="M163.6,209.5c0-0.1,0-0.2-0.1-0.3c0-0.1-0.1-0.2-0.2-0.3c0-0.1-0.1-0.1-0.1-0.2c-0.1-0.2-0.2-0.3-0.4-0.4
			l-16.4-16.4c-1.1-1.1-2.8-1.1-3.9,0c-1.1,1.1-1.1,2.8,0,3.9l11.8,11.8h-21.4c-13.3,0-24-10.8-24-24.1v-74.9
			c9.3-1.3,16.4-9.3,16.4-19c0-10.6-8.6-19.2-19.2-19.2S87,79.1,87,89.7c0,9.6,7.2,17.6,16.4,19v74.9c0,16.3,13.2,29.5,29.5,29.5
			h21.4l-11.8,11.8c-1.1,1.1-1.1,2.8,0,3.9c0.5,0.5,1.2,0.8,1.9,0.8c0.7,0,1.4-0.3,1.9-0.8l16.4-16.4c0.1-0.1,0.2-0.3,0.4-0.4
			c0-0.1,0.1-0.1,0.1-0.2c0.1-0.1,0.1-0.2,0.2-0.3c0-0.1,0.1-0.2,0.1-0.3c0-0.1,0.1-0.2,0.1-0.3c0.1-0.4,0.1-0.7,0-1.1
			C163.6,209.7,163.6,209.6,163.6,209.5z M92.5,89.7c0-7.6,6.1-13.7,13.7-13.7s13.7,6.1,13.7,13.7c0,7.6-6.1,13.7-13.7,13.7
			S92.5,97.2,92.5,89.7z M196.6,191.3v-74.9c0-16.3-13.2-29.5-29.5-29.5h-21.4l11.8-11.8c1.1-1.1,1.1-2.8,0-3.9
			c-1.1-1.1-2.8-1.1-3.9,0l-16.4,16.4c-0.1,0.1-0.2,0.3-0.4,0.4c0,0.1-0.1,0.1-0.1,0.2c-0.1,0.1-0.1,0.2-0.2,0.3
			c0,0.1-0.1,0.2-0.1,0.3c0,0.1-0.1,0.2-0.1,0.2c0,0.2-0.1,0.4-0.1,0.5c0,0,0,0,0,0c0,0,0,0,0,0c0,0.2,0,0.4,0.1,0.5
			c0,0.1,0,0.2,0.1,0.3c0,0.1,0,0.2,0.1,0.3c0,0.1,0.1,0.2,0.2,0.3c0,0.1,0.1,0.1,0.1,0.2c0.1,0.2,0.2,0.3,0.3,0.4l16.4,16.4
			c0.5,0.5,1.2,0.8,1.9,0.8c0.7,0,1.4-0.3,1.9-0.8c1.1-1.1,1.1-2.8,0-3.9l-11.8-11.8h21.4c13.3,0,24,10.8,24,24.1v74.9
			c-9.3,1.3-16.4,9.3-16.4,19c0,10.6,8.6,19.2,19.2,19.2c10.6,0,19.2-8.6,19.2-19.2C213,200.7,205.8,192.7,196.6,191.3z M193.8,224
			c-7.6,0-13.7-6.1-13.7-13.7c0-7.6,6.1-13.7,13.7-13.7s13.7,6.1,13.7,13.7C207.5,217.9,201.4,224,193.8,224z"/>
	</g>
</g>
</svg>
