<?xml version="1.0" encoding="utf-8"?>
<!-- Generator: Adobe Illustrator 19.1.0, SVG Export Plug-In . SVG Version: 6.00 Build 0)  -->
<svg version="1.1" id="Layer_1" xmlns="http://www.w3.org/2000/svg" xmlns:xlink="http://www.w3.org/1999/xlink" x="0px" y="0px"
	 viewBox="0 0 300 300" style="enable-background:new 0 0 300 300;" xml:space="preserve">
<style type="text/css">
	.st0{fill-rule:evenodd;clip-rule:evenodd;fill:#FFFFFF;}
	.st1{fill:#FFFFFF;}
</style>
<g id="Shape_7">
	<g>
		<path class="st0" d="M215,102.5h-3.8h-10h-2.5h-10h-2.5H185V95h-5v-2.8c0-9.5-7.7-17.2-17.2-17.2h-25.6c-9.5,0-17.2,7.7-17.2,17.2
			V95h-5v7.5h-1.2h-2.5h-10h-2.5h-10H85H75v10.6c0,5.5,0.9,10.9,2.5,15.9v74.5c0,5,3.4,9.4,8.3,10.6l23.6,5.9
			c13.2,3.3,26.8,5,40.4,5c0.1,0,0.1,0,0.2,0s0.2,0,0.2,0c13.6,0,27.2-1.7,40.4-5l23.6-5.9c4.9-1.2,8.3-5.6,8.3-10.6V129
			c1.6-5,2.5-10.4,2.5-15.9v-10.6H215z M135,95v-3.9c0-0.7,0.4-1,0.6-1.2c0.2-0.1,0.7-0.4,1.3-0.1c8.4,3.5,17.7,3.5,26.1,0
			c0.6-0.3,1.1,0,1.3,0.1c0.2,0.1,0.6,0.5,0.6,1.2V95h-5v7.5h-8.7h-2.5H140V95H135z M165,100h15v2.5h-3.8h-2.5H165V100z M125,92.2
			c0-6.7,5.5-12.2,12.2-12.2h25.6c6.7,0,12.2,5.5,12.2,12.2V95h-5v-3.9c0-2.1-1.1-4.1-2.8-5.3c-1.8-1.2-4-1.4-6-0.6
			c-7.2,3-15.1,3-22.3,0c-2-0.8-4.2-0.6-6,0.6c-1.8,1.2-2.8,3.2-2.8,5.3V95h-5V92.2z M120,100h15v2.5h-8.7h-2.5H120V100z
			 M147.5,219.9c-12.4-0.2-24.8-1.8-36.9-4.8l-18.1-4.5v-2.3c0-1.4-1.1-2.5-2.5-2.5s-2.5,1.1-2.5,2.5v1l-0.5-0.1
			c-2.7-0.7-4.5-3-4.5-5.8V140c1.5,2.4,3.2,4.7,5,6.9v1.5c0,1.4,1.1,2.5,2.5,2.5c0.4,0,0.8-0.1,1.1-0.3c9.3,8.9,21.9,14.4,35.8,14.4
			h8.1v12.5h12.5V219.9z M140,172.5V165v-15h20v15v7.5H140z M217.5,203.5c0,2.7-1.9,5.1-4.5,5.8l-0.6,0.1c-0.3-1.1-1.2-1.8-2.4-1.8
			c-1.4,0-2.5,1.1-2.5,2.5v0.5l-18.1,4.5c-12.1,3-24.5,4.6-36.9,4.8v-42.4H165V165h8.1c13.4,0,25.6-5.1,34.9-13.5
			c0.5,0.6,1.2,1.1,2,1.1c1.4,0,2.5-1.1,2.5-2.5v-2.5c0-0.2,0-0.4-0.1-0.6c1.9-2.2,3.6-4.5,5.1-7V203.5z M220,113.1
			c0,5-0.8,9.9-2.3,14.5c0,0.1,0,0.1-0.1,0.2c-6.2,18.7-23.8,32.2-44.5,32.2H165v-15h-30v15h-8.1c-13.8,0-26.2-6-34.8-15.5
			c-0.1-0.2-0.2-0.3-0.4-0.4c-4.1-4.7-7.3-10.2-9.3-16.3c0-0.1,0-0.1-0.1-0.2c-1.5-4.6-2.3-9.4-2.3-14.5v-5.6h5.3
			c0.4,0.7,1.2,1.2,2.2,1.2c0.9,0,1.7-0.5,2.1-1.2h9.1h2.5h10h2.5h1.2h8.8h2.5h10h2.5h1.3h8.7h2.5h8.7h1.2h2.5h10h2.5h8.8h1.2h2.5
			h10h2.5h9.1c0.4,0.7,1.2,1.2,2.1,1.2c0.9,0,1.7-0.5,2.2-1.2h5.3V113.1z M153.6,152.5h-7.2c-2.2,0-3.9,1.8-3.9,3.9v4.7
			c0,2.2,1.8,3.9,3.9,3.9h1.1v2.5c0,1.4,1.1,2.5,2.5,2.5s2.5-1.1,2.5-2.5V165h1.1c2.2,0,3.9-1.8,3.9-3.9v-4.7
			C157.5,154.3,155.7,152.5,153.6,152.5z M152.5,160h-5v-2.5h5V160z M171.3,150H170c-1.4,0-2.5,1.1-2.5,2.5c0,1.4,1.1,2.5,2.5,2.5
			h1.2c1.4,0,2.5-1.1,2.5-2.5C173.7,151.1,172.6,150,171.3,150z M182.7,148.7c-0.7,0.2-1.5,0.4-2.2,0.5c-1.4,0.3-2.2,1.6-2,2.9
			c0.2,1.2,1.3,2,2.4,2c0.2,0,0.3,0,0.5,0c0.9-0.2,1.7-0.4,2.5-0.6c1.3-0.4,2.1-1.7,1.8-3.1C185.4,149.2,184,148.4,182.7,148.7z
			 M193,144.1c-0.6,0.4-1.3,0.8-2,1.2c-1.2,0.7-1.6,2.2-1,3.4c0.5,0.8,1.3,1.3,2.2,1.3c0.4,0,0.8-0.1,1.2-0.3
			c0.8-0.4,1.5-0.9,2.2-1.3c1.2-0.7,1.5-2.3,0.7-3.5C195.8,143.7,194.2,143.4,193,144.1z M212.6,113.5c-1.4-0.1-2.6,0.9-2.7,2.3
			c-0.1,0.8-0.1,1.5-0.2,2.3c-0.2,1.4,0.8,2.6,2.1,2.8c0.1,0,0.2,0,0.3,0c1.2,0,2.3-0.9,2.5-2.2c0.1-0.9,0.2-1.7,0.3-2.6
			C215,114.8,214,113.6,212.6,113.5z M210.6,125.5c-1.3-0.5-2.7,0.1-3.3,1.4c-0.3,0.7-0.6,1.4-0.9,2.1c-0.6,1.2-0.1,2.7,1.2,3.3
			c0.3,0.2,0.7,0.2,1.1,0.2c0.9,0,1.8-0.5,2.3-1.4c0.4-0.8,0.7-1.6,1-2.4C212.5,127.5,211.9,126,210.6,125.5z M201.5,136.6
			c-0.5,0.6-1,1.2-1.5,1.7c-0.9,1-0.9,2.6,0.1,3.5c0.5,0.5,1.1,0.7,1.7,0.7c0.7,0,1.3-0.3,1.8-0.8c0.6-0.6,1.2-1.3,1.7-1.9
			c0.9-1.1,0.7-2.6-0.3-3.5C204,135.4,202.4,135.6,201.5,136.6z M119.5,149.3c-0.8-0.2-1.5-0.3-2.2-0.5c-1.3-0.4-2.7,0.4-3.1,1.8
			c-0.4,1.3,0.4,2.7,1.8,3.1c0.8,0.2,1.7,0.4,2.5,0.6c0.2,0,0.3,0.1,0.5,0.1c1.2,0,2.2-0.8,2.4-2
			C121.8,150.9,120.9,149.5,119.5,149.3z M92.6,126.9c-0.5-1.3-2-1.9-3.3-1.4c-1.3,0.5-1.9,2-1.4,3.3c0.3,0.8,0.7,1.6,1,2.4
			c0.4,0.9,1.3,1.4,2.3,1.4c0.4,0,0.7-0.1,1.1-0.2c1.2-0.6,1.8-2.1,1.2-3.3C93.2,128.3,92.9,127.6,92.6,126.9z M108.9,145.3
			c-0.7-0.4-1.3-0.8-2-1.2c-1.2-0.7-2.7-0.4-3.5,0.7c-0.7,1.2-0.4,2.7,0.7,3.5c0.7,0.5,1.5,0.9,2.2,1.3c0.4,0.2,0.8,0.3,1.2,0.3
			c0.9,0,1.7-0.5,2.2-1.3C110.5,147.5,110.1,146,108.9,145.3z M98.4,136.6c-0.9-1.1-2.5-1.2-3.5-0.3c-1.1,0.9-1.2,2.5-0.3,3.5
			c0.6,0.7,1.1,1.3,1.7,1.9c0.5,0.5,1.2,0.8,1.8,0.8c0.6,0,1.2-0.2,1.7-0.7c1-0.9,1.1-2.5,0.1-3.5C99.4,137.8,98.9,137.2,98.4,136.6
			z M88.2,120.9c1.4-0.2,2.3-1.5,2.1-2.8c-0.1-0.7-0.2-1.5-0.2-2.3c-0.1-1.4-1.3-2.4-2.7-2.3c-1.4,0.1-2.4,1.3-2.3,2.7
			c0.1,0.9,0.2,1.7,0.3,2.6c0.2,1.2,1.2,2.2,2.5,2.2C87.9,120.9,88,120.9,88.2,120.9z M130,150h-1.2c-1.4,0-2.5,1.1-2.5,2.5
			c0,1.4,1.1,2.5,2.5,2.5h1.2c1.4,0,2.5-1.1,2.5-2.5C132.5,151.1,131.4,150,130,150z M210,195.1c-1.4,0-2.5,1.1-2.5,2.5v2.5
			c0,1.4,1.1,2.5,2.5,2.5s2.5-1.1,2.5-2.5v-2.5C212.5,196.2,211.4,195.1,210,195.1z M210,182.6c-1.4,0-2.5,1.1-2.5,2.5v2.5
			c0,1.4,1.1,2.5,2.5,2.5s2.5-1.1,2.5-2.5v-2.5C212.5,183.7,211.4,182.6,210,182.6z M210,170.1c-1.4,0-2.5,1.1-2.5,2.5v2.5
			c0,1.4,1.1,2.5,2.5,2.5s2.5-1.1,2.5-2.5v-2.5C212.5,171.2,211.4,170.1,210,170.1z M210,157.6c-1.4,0-2.5,1.1-2.5,2.5v2.5
			c0,1.4,1.1,2.5,2.5,2.5s2.5-1.1,2.5-2.5v-2.5C212.5,158.7,211.4,157.6,210,157.6z M90,155.9c-1.4,0-2.5,1.1-2.5,2.5v2.5
			c0,1.4,1.1,2.5,2.5,2.5s2.5-1.1,2.5-2.5v-2.5C92.5,157,91.4,155.9,90,155.9z M90,193.4c-1.4,0-2.5,1.1-2.5,2.5v2.5
			c0,1.4,1.1,2.5,2.5,2.5s2.5-1.1,2.5-2.5v-2.5C92.5,194.5,91.4,193.4,90,193.4z M90,168.4c-1.4,0-2.5,1.1-2.5,2.5v2.5
			c0,1.4,1.1,2.5,2.5,2.5s2.5-1.1,2.5-2.5v-2.5C92.5,169.5,91.4,168.4,90,168.4z M90,180.9c-1.4,0-2.5,1.1-2.5,2.5v2.5
			c0,1.4,1.1,2.5,2.5,2.5s2.5-1.1,2.5-2.5v-2.5C92.5,182,91.4,180.9,90,180.9z M135,130h30v-15h-30V130z M140,120h20v5h-20V120z"/>
	</g>
</g>
</svg>
