<?xml version="1.0" encoding="utf-8"?>
<!-- Generator: Adobe Illustrator 19.1.0, SVG Export Plug-In . SVG Version: 6.00 Build 0)  -->
<svg version="1.1" id="Layer_1" xmlns="http://www.w3.org/2000/svg" xmlns:xlink="http://www.w3.org/1999/xlink" x="0px" y="0px"
	 viewBox="0 0 300 300" style="enable-background:new 0 0 300 300;" xml:space="preserve">
<style type="text/css">
	.st0{fill-rule:evenodd;clip-rule:evenodd;fill:#FFFFFF;}
	.st1{fill:#FFFFFF;}
</style>
<g id="Shape_4">
	<g>
		<path class="st0" d="M186.3,79.5h-46.4c-15.4,0-29,10.1-33.5,24.7c-15.9,3.4-27.9,17.6-27.9,34.5v27.1c0,18.5,15,34.2,33.4,35.5
			v15.5c0,1.6,0.8,3,2.1,3.5c0.4,0.2,0.8,0.2,1.2,0.2c0.9,0,1.8-0.4,2.5-1.1l3.6-3.6c9.3-9.3,21.8-14.4,35.3-14.4h3.4
			c15.7,0,29.1-10.4,33.6-24.8c16-3.7,27.9-18.3,27.9-34.6v-27.1C221.5,95.3,205.7,79.5,186.3,79.5z M190.5,165.8c0,0.7,0,1.3-0.1,2
			c0,0,0,0,0,0.1c-0.1,2-0.5,4-1,6l-0.4,1.5c-4,12.3-15.4,21.2-28.9,21.2h-3.4c-14.8,0-28.5,5.6-38.7,15.8l-1.3,1.3V199v-2.4V189
			c0-1.3-1.1-2.4-2.4-2.4c-1.3,0-2.4,1.1-2.4,2.4v7.4c-15.7-1.3-28.6-14.8-28.6-30.7v-27.1c0-14.6,10.3-26.9,24.1-29.9l1.3-0.2
			c1.4-0.2,2.6-0.4,3.8-0.4c0.4,0,0.8,0,1.3,0h46.4c16.8,0,30.4,13.7,30.4,30.5V165.8z M216.7,141.9c0,13.3-9.2,25.3-21.9,29.3
			c0.1-0.9,0.2-1.8,0.3-2.7c0,0,0-0.1,0-0.1c0.1-0.9,0.1-1.8,0.1-2.6v-27.1c0-19.5-15.8-35.3-35.2-35.3h-46.4c-0.7,0-1.4,0-2,0.1
			c4.6-11.5,15.7-19.2,28.2-19.2h46.4c16.8,0,30.4,13.7,30.4,30.5V141.9z M109.5,144c-5.3,0-9.5,4.3-9.5,9.6c0,5.3,4.3,9.6,9.5,9.6
			s9.5-4.3,9.5-9.6C119,148.3,114.7,144,109.5,144z M109.5,158.3c-2.6,0-4.8-2.1-4.8-4.8c0-2.6,2.1-4.8,4.8-4.8
			c2.6,0,4.8,2.1,4.8,4.8C114.3,156.2,112.1,158.3,109.5,158.3z M138.1,144c-5.3,0-9.5,4.3-9.5,9.6c0,5.3,4.3,9.6,9.5,9.6
			s9.5-4.3,9.5-9.6C147.6,148.3,143.3,144,138.1,144z M138.1,158.3c-2.6,0-4.8-2.1-4.8-4.8c0-2.6,2.1-4.8,4.8-4.8
			c2.6,0,4.8,2.1,4.8,4.8C142.9,156.2,140.7,158.3,138.1,158.3z M166.7,144c-5.3,0-9.5,4.3-9.5,9.6c0,5.3,4.3,9.6,9.5,9.6
			c5.3,0,9.5-4.3,9.5-9.6C176.2,148.3,171.9,144,166.7,144z M166.7,158.3c-2.6,0-4.8-2.1-4.8-4.8c0-2.6,2.1-4.8,4.8-4.8
			c2.6,0,4.8,2.1,4.8,4.8C171.5,156.2,169.3,158.3,166.7,158.3z"/>
	</g>
</g>
</svg>
