<?xml version="1.0" encoding="utf-8"?>
<!-- Generator: Adobe Illustrator 19.1.0, SVG Export Plug-In . SVG Version: 6.00 Build 0)  -->
<svg version="1.1" id="Layer_1" xmlns="http://www.w3.org/2000/svg" xmlns:xlink="http://www.w3.org/1999/xlink" x="0px" y="0px"
	 viewBox="0 0 300 300" style="enable-background:new 0 0 300 300;" xml:space="preserve">
<style type="text/css">
	.st0{fill-rule:evenodd;clip-rule:evenodd;fill:#FFFFFF;}
	.st1{fill:#FFFFFF;}
</style>
<g id="Shape_9">
	<g>
		<path class="st0" d="M233.3,140.9l-81.4-64.2c-1.1-0.9-2.7-0.9-3.8,0l-81.4,64.2c-1.3,1.1-1.6,3-0.5,4.4c1,1.4,3,1.6,4.3,0.5
			l15.9-12.5v87.6c0,1.7,1.4,3.1,3.1,3.1h38.9h43.4h38.9c1.7,0,3.1-1.4,3.1-3.1v-87.6l15.9,12.5c1.3,1.1,3.3,0.8,4.3-0.5
			C234.9,143.9,234.7,142,233.3,140.9z M165.6,217.8h-31.1v-34.7c0-8.7,7-15.8,15.6-15.8c8.6,0,15.6,7.1,15.6,15.8V217.8z
			 M207.5,217.8h-35.8v-34.7c0-12.1-9.7-22-21.7-22s-21.7,9.9-21.7,22v34.7H92.5v-89.3L150,83.1l57.5,45.4V217.8z M137.6,126.4
			c0,6.9,5.6,12.6,12.4,12.6c6.8,0,12.4-5.6,12.4-12.6c0-6.9-5.6-12.6-12.4-12.6C143.2,113.8,137.6,119.4,137.6,126.4z M156.2,126.4
			c0,3.5-2.8,6.3-6.2,6.3c-3.4,0-6.2-2.8-6.2-6.3c0-3.5,2.8-6.3,6.2-6.3C153.4,120,156.2,122.9,156.2,126.4z"/>
	</g>
</g>
</svg>
