<?xml version="1.0" encoding="utf-8"?>
<!-- Generator: Adobe Illustrator 19.1.0, SVG Export Plug-In . SVG Version: 6.00 Build 0)  -->
<svg version="1.1" id="Layer_1" xmlns="http://www.w3.org/2000/svg" xmlns:xlink="http://www.w3.org/1999/xlink" x="0px" y="0px"
	 viewBox="0 0 300 300" style="enable-background:new 0 0 300 300;" xml:space="preserve">
<style type="text/css">
	.st0{fill-rule:evenodd;clip-rule:evenodd;fill:#FFFFFF;}
	.st1{fill:#FFFFFF;}
</style>
<path class="st1" d="M213.2,126.2c-1.9-20.4-16.3-35.1-34.3-35.1c-10.9,0-21.3,5.5-27.8,14.6c-0.5,0.7-1.2,0.8-1.5,0.8
	c-0.3,0-1-0.1-1.5-0.8C141.8,96.4,132,91,121.1,91c-18,0-32.4,14.8-34.3,35.1c-0.1,0.9-0.7,5.6,1.1,13.4
	c2.6,11.1,8.7,21.3,17.6,29.3l44.2,40.1l45-40.1c2.3-2.1,4.4-4.3,6.3-6.6c0.1-0.1,0.2-0.3,0.3-0.4c5.3-6.6,9.1-14.2,11-22.3
	C214,131.8,213.4,127.1,213.2,126.2z M191.4,165.3l-41.7,37.2l-41-37.2c-0.8-0.8-1.7-1.6-2.5-2.4h7.4c0.9,0,1.8-0.5,2.2-1.4
	l9.6-21.1l12.2,30.5c0.3,0.9,1.1,1.4,2.1,1.5c0.1,0,0.1,0,0.2,0c0.9,0,1.7-0.5,2.1-1.2l9.9-17.8l5,8.4c0.5,0.8,1.5,1.3,2.4,1.1
	c1-0.2,1.7-0.9,1.9-1.9l6.9-32.6l5.1,32.4c0.2,1.2,1.2,2,2.3,2h18.5C193,163.8,192.2,164.5,191.4,165.3z M207.5,138.5
	c-1.7,7.1-4.9,13.8-9.5,19.7h-20.6l-6.8-43.2c-0.2-1.1-1.1-2-2.3-2c0,0,0,0-0.1,0c-1.1,0-2.1,0.8-2.3,1.9l-8.3,39.3l-4-6.7
	c-0.4-0.7-1.2-1.2-2.1-1.2c-0.9,0-1.6,0.5-2,1.2l-9.5,17l-12.4-31c-0.4-0.9-1.2-1.5-2.2-1.5c-0.9,0-1.8,0.5-2.2,1.4L112,158.2h-10
	c-4.6-5.9-7.8-12.6-9.5-19.7c-1.7-7.3-1-11.5-1-11.5l0-0.2c1.6-17.9,14-30.9,29.6-30.9c9.3,0,17.7,4.6,23.2,12.5
	c1.3,1.8,3.2,2.9,5.4,2.9c0,0,0,0,0,0c2.1,0,4.1-1,5.4-2.8c5.6-7.9,14.5-12.6,23.9-12.6c15.5,0,28,13,29.6,30.9l0,0.2
	C208.5,127,209.2,131.1,207.5,138.5z"/>
</svg>
