<?xml version="1.0" encoding="utf-8"?>
<!-- Generator: Adobe Illustrator 19.1.0, SVG Export Plug-In . SVG Version: 6.00 Build 0)  -->
<svg version="1.1" id="Layer_1" xmlns="http://www.w3.org/2000/svg" xmlns:xlink="http://www.w3.org/1999/xlink" x="0px" y="0px"
	 viewBox="0 0 300 300" style="enable-background:new 0 0 300 300;" xml:space="preserve">
<style type="text/css">
	.st0{fill-rule:evenodd;clip-rule:evenodd;fill:#FFFFFF;}
	.st1{fill:#FFFFFF;}
</style>
<g id="Shape_1_copy">
	<g>
		<path class="st1" d="M162.5,76c4.7,0,8.5,3.7,8.5,8.2c0,4.5-3.8,8.2-8.5,8.2c-4.7,0-8.5-3.7-8.5-8.2C154,79.7,157.8,76,162.5,76
			 M145,110.1c4.1,0,8.1,1.7,11.3,4.9c3,3,4.7,6.9,4.7,10.6c0,5.5-7.9,35.4-13.2,55.2c-5.4,20.5-6.8,25.9-6.8,27.7
			c0,6.1,5.3,11.3,11.5,11.3c1.5,0,3-0.3,4.3-0.9c-2.9,3.1-7.1,5-11.8,5c-8.8,0-16-7-16-15.5c0-6.3,8.7-39,13.9-58.4
			c4.9-18.4,6.1-22.8,6.1-24.4c0-5.8-5.6-11.3-11.5-11.3c-1.5,0-3,0.3-4.3,0.9C136.1,112.1,140.3,110.1,145,110.1 M162.5,72
			c-6.9,0-12.5,5.5-12.5,12.2c0,6.7,5.6,12.2,12.5,12.2c6.9,0,12.5-5.5,12.5-12.2C175,77.5,169.4,72,162.5,72L162.5,72z M145,106.1
			c-11,0-20,8.8-20,19.5v4.9h5v-4.9c0-3.9,3.5-7.3,7.5-7.3s7.5,3.9,7.5,7.3c0,3.4-20,72.1-20,82.9c0,10.7,9,19.5,20,19.5
			c11,0,20-8.8,20-19.5v-4.9h-5v4.9c0,3.9-3.5,7.3-7.5,7.3s-7.5-3.4-7.5-7.3c0-3.9,20-73.1,20-82.9S156,106.1,145,106.1L145,106.1z"
			/>
	</g>
</g>
</svg>
