<?xml version="1.0" encoding="utf-8"?>
<!-- Generator: Adobe Illustrator 19.1.0, SVG Export Plug-In . SVG Version: 6.00 Build 0)  -->
<svg version="1.1" id="Layer_1" xmlns="http://www.w3.org/2000/svg" xmlns:xlink="http://www.w3.org/1999/xlink" x="0px" y="0px"
	 viewBox="0 0 300 300" style="enable-background:new 0 0 300 300;" xml:space="preserve">
<style type="text/css">
	.st0{fill-rule:evenodd;clip-rule:evenodd;fill:#FFFFFF;}
	.st1{fill:#FFFFFF;}
</style>
<g id="Shape_2">
	<g>
		<path class="st0" d="M235.6,127.8h-6.7c-7.2-10.7-19.3-17.8-33.1-17.8c-18.1,0-33.4,12.2-38.2,28.8c-2.2-1.3-4.8-2.1-7.5-2.1
			c-2.7,0-5.3,0.8-7.5,2.1c-4.8-16.6-20.1-28.8-38.2-28.8c-13.8,0-26,7.1-33.1,17.8l-6.7,0c-1.6,0-3,1.3-3,3c0,1.6,1.3,3,3,3h3.5
			c-2.2,5-3.5,10.5-3.5,16.3c0,22.1,17.9,40,39.8,40c22,0,39.8-17.9,39.8-40c0-1.6-0.1-3.3-0.3-4.8c1.6-1.6,3.8-2.6,6.2-2.6
			c2.4,0,4.6,1,6.2,2.6c-0.2,1.6-0.3,3.2-0.3,4.8c0,22.1,17.9,40,39.8,40c22,0,39.8-17.9,39.8-40c0-5.8-1.2-11.3-3.5-16.3h3.5
			c1.6,0,3-1.3,3-3C238.5,129.1,237.2,127.8,235.6,127.8z M104.3,184.1c-18.7,0-33.9-15.3-33.9-34.1c0-5.9,1.5-11.5,4.1-16.3h10.6
			c13,0,23.6,10.6,23.6,23.7c0,1.6,1.3,3,3,3c1.6,0,3-1.3,3-3c0-15.3-11.7-28-26.6-29.5l-9.5-0.1c6.2-7.3,15.5-11.9,25.8-11.9
			c16.5,0,30.3,11.9,33.3,27.6c-1.5,2.3-2.3,5-2.3,8c0,1.5,1.2,2.8,2.7,2.9C135.7,171.1,121.5,184.1,104.3,184.1z M229.6,150
			c0,18.8-15.2,34.1-33.9,34.1c-17.2,0-31.5-13-33.6-29.7c1.5-0.2,2.7-1.4,2.7-2.9c0-2.9-0.9-5.7-2.3-8c3-15.7,16.8-27.6,33.3-27.6
			c10.3,0,19.5,4.6,25.7,11.9H212v0.1c-14.9,1.5-26.6,14.1-26.6,29.5c0,1.6,1.3,3,3,3c1.6,0,3-1.3,3-3c0-13.1,10.6-23.7,23.6-23.7
			h10.6C228.1,138.5,229.6,144.1,229.6,150z"/>
	</g>
</g>
</svg>
